<svg width="32" height="32" viewBox="0 0 32 32" fill="none" xmlns="http://www.w3.org/2000/svg">
<path d="M25.4074 0.111145H6.76542C3.19153 0.111145 0.283936 3.01874 0.283936 6.59263V25.2346C0.283936 28.8085 3.19153 31.7161 6.76542 31.7161H25.4074C28.9813 31.7161 31.8889 28.8085 31.8889 25.2346V6.59263C31.8889 3.01874 28.9813 0.111145 25.4074 0.111145ZM16.9928 6.36324C18.4042 4.50293 20.3664 4.49386 20.3664 4.49386C20.3664 4.49386 20.6583 6.24281 19.2561 7.92769C17.7589 9.72676 16.0571 9.43232 16.0571 9.43232C16.0571 9.43232 15.7376 8.01744 16.9928 6.36324ZM20.087 25.9438C18.8318 25.9438 17.8562 25.098 16.5338 25.098C15.1862 25.098 13.8488 25.9753 12.9779 25.9753C10.4826 25.9753 7.33029 20.5739 7.33029 16.232C7.33029 11.9602 9.99856 9.71923 12.5013 9.71923C14.1283 9.71923 15.3909 10.6575 16.2367 10.6575C16.9629 10.6575 18.3104 9.65942 20.0646 9.65942C23.084 9.65942 24.2718 11.8079 24.2718 11.8079C24.2718 11.8079 21.9486 12.9957 21.9486 15.8778C21.9486 19.1291 24.8426 20.2496 24.8426 20.2496C24.8426 20.2496 22.8195 25.9438 20.087 25.9438Z" fill="black"/>
</svg>
