<svg width="30" height="30" viewBox="0 0 30 30" fill="none" xmlns="http://www.w3.org/2000/svg">
<circle cx="15" cy="15" r="15" fill="#156639" fill-opacity="0.2"/>
<path d="M15 25C9.47715 25 5 20.5228 5 15C5 9.47715 9.47715 5 15 5C20.5228 5 25 9.47715 25 15C24.9939 20.5203 20.5203 24.9939 15 25ZM7 15.172C7.04732 19.5732 10.6411 23.1095 15.0425 23.086C19.444 23.0622 22.9995 19.4875 22.9995 15.086C22.9995 10.6845 19.444 7.10977 15.0425 7.086C10.6411 7.06246 7.04732 10.5988 7 15V15.172ZM17 20H14V16H13V14H16V18H17V20ZM16 12H14V10H16V12Z" fill="#156639"/>
</svg>
