<svg width="30" height="17" viewBox="0 0 30 17" fill="none" xmlns="http://www.w3.org/2000/svg">
<path d="M15 0C13.915 0 12.8745 0.413323 12.1073 1.14904C11.3401 1.88476 10.9091 2.88261 10.9091 3.92308C10.9091 4.96354 11.3401 5.96139 12.1073 6.69711C12.8745 7.43283 13.915 7.84615 15 7.84615C16.085 7.84615 17.1255 7.43283 17.8927 6.69711C18.6599 5.96139 19.0909 4.96354 19.0909 3.92308C19.0909 2.88261 18.6599 1.88476 17.8927 1.14904C17.1255 0.413323 16.085 0 15 0ZM6.81818 2.83769C5.91403 2.83769 5.04692 3.18213 4.40759 3.79523C3.76826 4.40833 3.40909 5.23987 3.40909 6.10692C3.40909 6.53624 3.49727 6.96136 3.66859 7.358C3.83992 7.75465 4.09103 8.11504 4.40759 8.41862C4.72415 8.72219 5.09997 8.963 5.51358 9.1273C5.92719 9.29159 6.37049 9.37615 6.81818 9.37615C8.01818 9.37615 9.06818 8.77462 9.66818 7.88538C8.75455 6.77385 8.18182 5.42692 8.18182 3.92308C8.18182 3.66154 8.18182 3.4 8.23636 3.13846C7.8 2.94231 7.32273 2.83769 6.81818 2.83769ZM23.1818 2.83769C22.6773 2.83769 22.2 2.94231 21.7636 3.13846C21.8182 3.4 21.8182 3.66154 21.8182 3.92308C21.8182 5.42692 21.2455 6.77385 20.3318 7.88538C20.9318 8.77462 21.9818 9.37615 23.1818 9.37615C23.6295 9.37615 24.0728 9.29159 24.4864 9.1273C24.9 8.963 25.2758 8.72219 25.5924 8.41862C25.909 8.11504 26.1601 7.75465 26.3314 7.358C26.5027 6.96136 26.5909 6.53624 26.5909 6.10692C26.5909 5.6776 26.5027 5.25248 26.3314 4.85584C26.1601 4.4592 25.909 4.0988 25.5924 3.79523C25.2758 3.49165 24.9 3.25084 24.4864 3.08655C24.0728 2.92225 23.6295 2.83769 23.1818 2.83769ZM15 10.4615C12.2727 10.4615 6.81818 11.7692 6.81818 14.3846V17H23.1818V14.3846C23.1818 11.7692 17.7273 10.4615 15 10.4615ZM5.00455 11.73C2.72727 12.1092 0 13.1292 0 14.8162V17H4.09091V14.3846C4.09091 13.3646 4.48636 12.4623 5.00455 11.73ZM24.9955 11.73C25.5136 12.4623 25.9091 13.3646 25.9091 14.3846V17H30V14.8162C30 13.1292 27.2727 12.1092 24.9955 11.73Z" fill="#F2F4F3"/>
</svg>
