<svg width="33" height="33" viewBox="0 0 33 33" fill="none" xmlns="http://www.w3.org/2000/svg">
<path d="M27.9385 0.901245H4.85148C2.49944 0.901245 0.592651 2.80796 0.592651 5.16007V28.2472C0.592651 30.5993 2.49936 32.506 4.85148 32.506H16.2379L16.2573 21.2122H13.3231C12.9418 21.2122 12.6323 20.9039 12.6309 20.5225L12.6168 16.8821C12.6153 16.4987 12.9258 16.1871 13.3091 16.1871H16.238V12.6695C16.238 8.58732 18.7311 6.36454 22.3726 6.36454H25.3608C25.7431 6.36454 26.0532 6.6745 26.0532 7.05689V10.1266C26.0532 10.5088 25.7434 10.8187 25.3612 10.8189L23.5274 10.8197C21.547 10.8197 21.1635 11.7608 21.1635 13.1419V16.1872H25.5151C25.9298 16.1872 26.2515 16.5492 26.2026 16.961L25.7711 20.6015C25.7298 20.9499 25.4344 21.2123 25.0837 21.2123H21.1829L21.1635 32.5062H27.9386C30.2907 32.5062 32.1974 30.5995 32.1974 28.2474V5.16007C32.1973 2.80796 30.2906 0.901245 27.9385 0.901245Z" fill="#475993"/>
</svg>
