<svg width="19" height="15" viewBox="0 0 19 15" fill="none" xmlns="http://www.w3.org/2000/svg">
<path d="M17.3254 6.7698C17.1462 5.99653 16.38 5.36854 15.1895 4.91354L15.2065 4.88783C15.3887 4.94959 15.5865 4.98256 15.787 4.98256C16.3958 4.98256 16.9654 4.67329 17.3092 4.15499C17.8859 3.28852 17.6717 2.09893 16.8328 1.50413C16.5333 1.29158 16.19 1.17332 15.8383 1.16299C15.7027 0.828229 15.4769 0.542481 15.1835 0.334765C14.8747 0.114959 14.5136 0 14.1401 0C13.5304 0 12.9604 0.309267 12.6161 0.82713C12.1591 1.51556 12.193 2.40819 12.6591 3.04937L12.3501 3.51492L11.8892 4.21214C11.1431 4.13565 10.3532 4.08685 9.50064 4.08685C5.17882 4.08685 2.15804 5.18368 1.67568 6.7698L0 11.4161C0 13.3943 4.00124 15 9.50043 15C14.9996 15 19 13.3943 19 11.4161L17.3254 6.7698ZM3.60297 6.81025C3.60297 5.77804 6.29913 4.94058 9.62815 4.94058C10.231 4.94058 10.8019 4.97597 11.3502 5.0274L10.3085 6.60407L10.0002 7.07028C9.83484 7.02126 9.66859 6.9973 9.50107 6.9973C8.89163 6.9973 8.32221 7.30701 7.97758 7.82531C7.82347 8.05677 7.73151 8.31284 7.68766 8.57177C5.31718 8.31988 3.60297 7.63034 3.60297 6.81025ZM10.9571 8.632C10.5345 8.66167 10.0965 8.67882 9.64517 8.67882C9.64241 8.67882 9.64007 8.67948 9.63772 8.67948C9.63645 8.67948 9.6356 8.67948 9.63474 8.67948C9.63283 8.67948 9.63027 8.67948 9.62815 8.67948C9.21391 8.67948 8.82096 8.65618 8.4312 8.63046C8.46185 8.50078 8.50762 8.37307 8.58617 8.25635C8.80074 7.93258 9.14813 7.75783 9.50128 7.75783C9.68072 7.75783 9.86123 7.80289 10.0266 7.89499L10.0771 7.92708C10.1209 7.9517 10.1601 7.96291 10.1942 7.96291C10.3215 7.96291 10.3977 7.81652 10.5026 7.6587L10.9181 7.03335L12.9569 3.94486L13.3729 3.32039C13.5068 3.11883 13.6394 2.96936 13.4623 2.81396L13.4159 2.77703C12.9908 2.40028 12.8997 1.74636 13.2243 1.25905C13.4389 0.935055 13.7858 0.761408 14.1401 0.761408C14.3561 0.761408 14.5754 0.826031 14.7665 0.96319C14.9658 1.10387 15.1056 1.30103 15.1816 1.5193L15.2078 1.59227C15.2353 1.69404 15.2978 1.78724 15.3887 1.85187C15.4677 1.9077 15.558 1.93473 15.648 1.93473C15.6686 1.93473 15.6884 1.93385 15.7085 1.93034L15.7374 1.9244C15.7523 1.92286 15.7685 1.92242 15.7832 1.92242C16.0009 1.92242 16.2229 1.99496 16.4156 2.13146C16.9212 2.48952 17.0491 3.20257 16.7025 3.72395C16.4878 4.04707 16.1406 4.22203 15.7872 4.22203C15.5861 4.22203 15.3821 4.16444 15.1999 4.04707L15.1865 4.04069L15.1427 4.01212C15.0982 3.98684 15.0598 3.97651 15.0249 3.97651C14.8989 3.97651 14.8223 4.12268 14.7161 4.28072L14.2092 5.04367L12.3605 7.84641L11.9013 8.53638C11.6857 8.56408 11.4673 8.59024 11.24 8.61002C11.1452 8.61727 11.0537 8.62563 10.9571 8.632ZM12.9035 8.37373L12.9678 8.27723L14.619 5.7743C15.2614 6.0717 15.6529 6.42581 15.6529 6.81047C15.6529 7.46681 14.5541 8.04072 12.9035 8.37373Z" fill="#156639"/>
</svg>
