<svg width="16" height="20" viewBox="0 0 16 20" fill="none" xmlns="http://www.w3.org/2000/svg">
<path fill-rule="evenodd" clip-rule="evenodd" d="M2.44785 3.75108H4.24973C4.24973 1.68663 5.92317 0.0129395 7.98787 0.0129395C10.0523 0.0129395 11.7258 1.68663 11.7258 3.75108H13.5276C14.8165 3.75108 15.871 4.80558 15.871 6.09444V17.1742C15.871 18.4633 14.8165 19.5176 13.5276 19.5176H2.44785C1.15874 19.5176 0.104492 18.4633 0.104492 17.1742V6.09444C0.104492 4.80558 1.15874 3.75108 2.44785 3.75108ZM8.79415 3.47613L9.55539 2.18381L8.26306 2.9448C7.71614 2.75746 7.13556 3.16357 7.13556 3.75108C7.13556 4.22178 7.51717 4.60314 7.98787 4.60314C8.57612 4.60314 8.981 4.02355 8.79415 3.47613ZM5.02384 7.32415C6.99994 7.32415 8.9758 7.32415 10.9519 7.32415C13.0151 7.32415 14.1367 9.18914 13.8583 11.0851L13.0488 16.5731C12.854 17.8979 11.8233 18.9222 10.454 18.9222C8.80999 18.9222 7.16575 18.9222 5.52176 18.9222C4.15247 18.9222 3.12173 17.8979 2.92672 16.5731L2.11722 11.0851C1.83881 9.18815 2.96137 7.32415 5.02384 7.32415ZM8.50064 8.34994V17.8966H10.454C11.3187 17.8966 11.9138 17.2514 12.0351 16.4251L12.8446 10.9368C13.0312 9.66429 12.385 8.34994 10.9519 8.34994H8.50064ZM7.4751 8.34994H5.02384C3.59219 8.34994 2.94454 9.66429 3.13114 10.9368L3.94063 16.4251C4.06165 17.2517 4.65708 17.8966 5.52176 17.8966H7.4751V8.34994ZM7.98787 1.18301C9.40616 1.18301 10.5559 2.33279 10.5559 3.75108C10.5559 5.16962 9.40616 6.31939 7.98787 6.31939C6.56933 6.31939 5.41931 5.16962 5.41931 3.75108C5.41931 2.33279 6.56933 1.18301 7.98787 1.18301Z" fill="#156639"/>
</svg>
